<svg width="905" height="555" viewBox="0 0 905 555" fill="none" xmlns="http://www.w3.org/2000/svg">
<path d="M816.741 105.103C701.484 14.2692 504.137 8.58966 491.923 8.26566C336.283 4.11084 225.163 49.8138 185.111 66.8143C156.016 79.1644 115.666 96.6032 77.9972 127.269C60.8179 141.258 0.971563 193.174 0.0116387 263.025C-1.4779 371.603 140.458 442.273 166.244 454.585C305.632 521.176 549.452 554.338 732.301 478.37C947.092 389.156 944.908 206.096 816.741 105.103Z" fill="#F4F7FA"/>
<path d="M518.566 471.904C515.457 470.817 509.64 465.705 508.686 463.74C502.259 450.714 488.66 427.121 492.722 412.301C493.409 409.764 505.367 409.822 507.465 407.8C515.095 405.969 517.841 405.816 524.23 400.533C543.113 384.912 516.544 342.475 558.733 338.451C589.631 335.495 612.004 350.658 618.393 304.997C624.783 259.337 677.786 184.896 718.678 226.322C742.138 250.106 706.376 282.51 714.444 313.694C722.111 343.334 706.071 362.998 674.181 373.087C642.291 383.158 654.899 398.759 657.779 425.995C661.25 458.705 613.015 454.185 590.928 450.199C573.133 446.975 525.661 450.809 518.566 471.904Z" fill="url(#paint0_linear_1032_23779)"/>
<path d="M500.828 439.404L500.656 438.755C553.278 425.595 600.464 396.642 637.084 355.083C671.93 315.526 696.763 265.364 708.894 210.015L709.561 210.167C697.412 265.631 672.522 315.888 637.599 355.54C600.884 397.195 553.583 426.205 500.828 439.404Z" fill="#FCFDFE"/>
<path d="M660.792 439.423C635.234 424.603 589.364 414.666 558.542 417.241L558.485 416.573C589.44 413.98 635.482 423.974 661.135 438.85L660.792 439.423Z" fill="#FCFDFE"/>
<path d="M521.331 434.025L520.988 433.434C534.892 425.366 544.199 410.565 548.605 389.452C551.848 373.984 552.439 355.54 550.36 334.637L551.028 334.579C553.106 355.54 552.515 374.06 549.254 389.604C544.81 410.89 535.407 425.843 521.331 434.025Z" fill="#FCFDFE"/>
<path d="M642.348 349.685L641.986 349.113C667.41 332.558 699.319 333.416 721.596 337.078L721.481 337.745C699.319 334.122 667.582 333.244 642.348 349.685Z" fill="#FCFDFE"/>
<path d="M680.723 291.799L680.075 291.608C684.137 277.513 687.971 247.931 667.982 208.26L668.593 207.955C675.345 221.344 680.132 235.534 682.421 248.942C685.034 264.391 684.48 278.81 680.723 291.799Z" fill="#FCFDFE"/>
<path d="M604.088 448.559C587.514 446.117 570.94 443.294 554.404 440.109C554.137 440.357 548.701 404.31 565.828 385.408C599.683 348.788 576.871 315.926 570.368 296.453C560.068 269.007 565.485 239.31 593.408 238.872C624.382 237.785 629.989 186.517 624.382 139.884C620.033 117.149 641.509 89.5505 662.909 83.2373C684.767 76.2567 706.586 90.5613 713.28 135.878C723.408 188.367 685.091 220.028 670.92 246.329C656.958 272.154 689.439 293.058 663.291 315.945C641.319 336.277 613.606 350.906 623.733 376.444C634.147 401.735 631.649 422.391 604.088 448.559Z" fill="url(#paint1_linear_1032_23779)"/>
<path d="M581.907 450.695L581.239 450.676C581.239 450.351 597.089 374.537 624.401 300.744C628.178 288.804 632.278 276.75 636.245 265.097C646.869 233.894 657.836 201.622 663.043 169.485C668.86 133.571 666.8 101.223 656.691 70.5921L657.34 70.3823C667.468 101.109 669.566 133.571 663.71 169.58C658.484 201.756 647.498 234.065 636.875 265.288C632.908 276.941 628.807 288.995 625.03 300.935C597.508 375.338 581.945 450.256 581.907 450.695Z" fill="#FCFDFE"/>
<path d="M656.062 204.789L655.566 204.331C674.048 183.789 696.344 154.608 708.321 138.93C717.972 126.304 718.01 126.323 718.411 126.38L718.354 126.704L718.487 127.01C717.991 127.353 713.948 132.636 708.836 139.331C696.878 155.047 674.562 184.247 656.062 204.789Z" fill="#FCFDFE"/>
<path d="M661.651 176.637C657.836 153.101 648.128 137.614 640.67 128.783C632.431 119.018 624.84 114.765 624.077 114.669C624.077 114.669 624.153 114.669 624.23 114.612L623.848 114.059C624.02 113.945 624.211 113.964 624.668 114.174C626.709 115.07 634.357 119.838 642.387 129.813C652.496 142.363 659.381 158.537 662.299 176.542L661.651 176.637Z" fill="#FCFDFE"/>
<path d="M608.819 349.036L608.151 348.96C610.764 327.065 605.653 303.51 592.988 278.944C586.389 266.127 577.959 253.596 567.946 241.656C567.221 240.798 566.973 240.493 566.877 240.34L567.469 239.997C567.526 240.092 567.946 240.588 568.46 241.218C578.512 253.195 586.961 265.783 593.599 278.639C606.301 303.319 611.432 326.988 608.819 349.036Z" fill="#FCFDFE"/>
<path d="M616.276 325.977L615.704 325.615C635.578 293.496 677.5 291.265 677.862 291.379L678.11 291.703L677.882 292.028L677.767 291.703L677.729 292.028C677.08 292.047 635.845 294.374 616.276 325.977ZM677.672 291.398L677.786 291.723L677.672 291.398Z" fill="#FCFDFE"/>
<path d="M584.672 438.335L584.005 438.316C584.348 428.78 580.953 412.53 562.72 389.242C561.728 387.983 561.728 387.983 561.766 387.792L562.433 387.888L562.09 387.85L562.395 387.716C562.453 387.812 562.815 388.288 563.254 388.822C581.602 412.263 585.035 428.685 584.672 438.335Z" fill="#FCFDFE"/>
<path d="M588.887 420.369L588.239 420.178C590.337 412.93 598.614 398.721 630.39 385.027C630.828 384.836 631.115 384.722 631.21 384.664L631.515 385.256C631.401 385.313 631.114 385.446 630.657 385.637C599.129 399.236 590.966 413.236 588.887 420.369Z" fill="#FCFDFE"/>
<path d="M679.751 288.995C679.751 400.514 589.384 495.039 474.108 500.303C354.368 505.777 253.854 413.56 253.854 294.126C253.854 174.692 354.349 80.0716 474.089 82.6464C589.384 85.1259 679.751 177.477 679.751 288.995Z" fill="url(#paint2_linear_1032_23779)"/>
<path d="M693.14 288.995C693.14 400.514 602.773 495.039 487.497 500.303C367.758 505.777 267.244 413.56 267.244 294.126C267.244 174.692 367.758 80.0522 487.497 82.6461C602.773 85.1256 693.14 177.476 693.14 288.995Z" fill="url(#paint3_linear_1032_23779)"/>
<path d="M680.4 289.148C680.4 394.22 595.163 483.118 486.639 487.868C374.166 492.788 279.965 406.045 279.965 293.992C279.965 181.939 374.166 92.9073 486.639 95.1198C595.163 97.2368 680.4 184.075 680.4 289.148Z" fill="url(#paint4_linear_1032_23779)"/>
<path d="M442.885 299.218C451.621 287.889 455.988 270.952 455.988 248.389C455.988 226.818 451.544 210.205 442.675 198.59C433.807 186.975 421.066 181.157 404.492 181.157C370.656 181.157 353.739 203.568 353.739 248.389C353.739 270.361 358.145 287.164 366.975 298.78C375.806 310.395 388.318 316.212 404.492 316.212C421.352 316.212 434.15 310.547 442.885 299.218ZM404.778 285.753C399.876 285.753 396.309 282.682 394.116 276.56C391.904 270.437 390.797 261.13 390.797 248.675C390.797 236.221 391.904 226.97 394.116 220.943C396.328 214.916 399.876 211.903 404.778 211.903C414.2 211.903 418.911 224.167 418.911 248.675C418.911 273.394 414.2 285.753 404.778 285.753Z" fill="white"/>
<path d="M593.332 284.494C584.463 272.879 571.722 267.061 555.148 267.061C521.313 267.061 504.395 289.472 504.395 334.293C504.395 356.17 508.801 372.916 517.632 384.531C526.462 396.146 538.974 401.964 555.148 401.964C572.008 401.964 584.825 396.299 593.541 384.97C602.277 373.64 606.645 356.742 606.645 334.293C606.645 312.722 602.201 296.128 593.332 284.494ZM555.434 371.676C550.532 371.676 546.966 368.605 544.772 362.483C542.56 356.36 541.454 347.053 541.454 334.598C541.454 322.144 542.56 312.893 544.772 306.866C546.985 300.839 550.532 297.826 555.434 297.826C564.856 297.826 569.567 310.09 569.567 334.598C569.567 359.317 564.856 371.676 555.434 371.676Z" fill="white"/>
<path d="M553.298 186.479C552.459 185.048 550.914 184.114 549.273 184.114H527.454C524.021 184.114 520.874 186.04 519.215 189.034L406.437 392.37C405.636 393.82 405.655 395.631 406.494 397.062C407.333 398.492 408.878 399.408 410.518 399.408H435.122C436.82 399.408 438.384 398.454 439.223 396.967L553.355 191.171C554.156 189.721 554.137 187.909 553.298 186.479Z" fill="white"/>
<g opacity="0.3">
<path opacity="0.3" d="M394.688 201.832C387.612 178.754 387.937 143.698 422.458 91.9155C333.388 117.568 267.244 198.342 267.244 294.965C267.244 414.38 367.758 506.616 487.497 501.142C531.65 499.121 572.066 484.053 605.1 460.136C604.07 428.284 597.147 393.419 577.654 361.262C524.059 272.84 416.908 274.233 394.688 201.832Z" fill="url(#paint5_linear_1032_23779)"/>
</g>
<path d="M659 174.793V175.457C652.862 167.492 642.588 153.903 636 147.5C636 148.203 635.883 147.207 636 147.5C632.325 139.125 626.217 131.729 619.747 122.672C613.315 113.594 605.164 104.673 595.644 96.435C594.51 95.3613 593.181 94.4243 591.969 93.4092C591.343 92.9211 590.718 92.4136 590.092 91.9256L589.173 91.1838C588.841 90.93 588.509 90.7152 588.196 90.4615C586.886 89.5244 585.576 88.5679 584.267 87.6114L583.289 86.8891L582.253 86.2253C581.569 85.7764 580.885 85.3274 580.201 84.8784C577.503 83.0239 574.59 81.4036 571.756 79.7053C570.309 78.8854 568.784 78.124 567.318 77.3432C566.595 76.9528 565.852 76.5428 565.109 76.1719C564.347 75.8205 563.584 75.4496 562.822 75.0982C550.663 69.2614 537.39 65.0253 523.784 62.7022C522.083 62.429 520.383 62.1752 518.662 61.9019C516.962 61.6676 515.222 61.531 513.521 61.3358L510.941 61.0625L508.36 60.9258L505.78 60.7696C504.92 60.7306 504.079 60.6525 503.199 60.6525C501.479 60.6525 499.759 60.633 498.039 60.6135C497.609 60.6135 497.159 60.594 496.768 60.6135L495.615 60.672L493.328 60.7892L491.04 60.9063C490.845 60.9063 490.708 60.9063 490.434 60.9258L488.089 61.1015L484.961 61.3162L482.615 61.4919L482.224 61.5115H482.087C482.087 61.5115 481.266 61.5115 482.635 61.531L477.572 62.2337C476.731 62.3509 475.89 62.429 475.069 62.6046L472.587 63.0732L470.104 63.5417L468.873 63.7759C468.462 63.854 468.052 63.9711 467.661 64.0687C466.038 64.4592 464.416 64.8496 462.813 65.24C461.992 65.4157 461.21 65.6695 460.428 65.9037L458.062 66.6065L455.697 67.2897L453.39 68.0901C451.846 68.6367 450.302 69.1247 448.816 69.7104C447.33 70.3155 445.825 70.9012 444.339 71.5259C432.552 76.5038 421.957 82.9458 412.945 90.3053L411.244 91.6523L409.641 93.0968C408.566 94.0534 407.471 94.9514 406.455 95.9274C406.416 95.9665 406.376 96.0055 406.337 96.0445C404.363 97.9967 402.349 99.8317 400.571 101.842C400.101 102.33 399.632 102.838 399.183 103.326L398.479 104.068L397.834 104.849C396.974 105.864 396.114 106.898 395.253 107.894C395.038 108.148 394.823 108.382 394.608 108.636L394.022 109.417C393.611 109.944 393.22 110.471 392.829 110.978C392.067 112.032 391.226 112.989 390.523 114.082C384.678 122.418 380.201 130.753 377.171 138.698C374.122 146.624 372.304 154.062 371.248 160.64C371.131 161.46 371.013 162.28 370.916 163.081C370.818 163.881 370.662 164.642 370.623 165.423C370.486 166.965 370.368 168.449 370.232 169.854C370.153 171.279 370.153 172.665 370.075 173.954C370.056 174.598 369.997 175.242 369.997 175.847C370.016 176.472 370.036 177.077 370.056 177.663C370.075 178.834 370.095 179.947 370.114 180.981C370.114 181.274 370.153 181.43 370.173 181.626C370.192 181.821 370.232 182.016 370.251 182.192C370.29 182.563 370.329 182.504 370.368 182.836C370.388 183.129 370.427 183.246 370.447 183.246H428.134L393.084 220.2L311.547 305L195 183.305H256.284C256.362 183.305 256.46 182.309 256.558 181.528C256.792 179.83 257.047 178.19 257.32 176.179C257.477 175.184 257.613 174.247 257.789 173.173C257.868 172.646 257.965 172.158 258.043 171.592C258.122 171.045 258.2 170.46 258.317 169.991C258.747 167.98 259.197 165.853 259.666 163.588C259.92 162.456 260.174 161.304 260.428 160.133C260.702 158.942 261.034 157.751 261.367 156.521C262.031 154.062 262.676 151.485 263.478 148.83C264.338 146.195 265.237 143.442 266.156 140.592C266.606 139.167 267.192 137.742 267.739 136.297C268.287 134.872 268.854 133.389 269.44 131.886C274.19 120.017 280.7 107.074 289.38 94.0924C298.02 81.0913 309.045 68.1292 322.123 56.1236C323.706 54.5814 325.466 53.1759 327.147 51.6923C328.007 50.97 328.848 50.2282 329.708 49.5059L331.018 48.4127L332.347 47.3586C334.145 45.9725 335.963 44.567 337.762 43.142L339.13 42.0878L340.557 41.0922C341.515 40.409 342.453 39.7453 343.411 39.0815C347.145 36.3486 351.172 33.9084 355.179 31.3706C357.193 30.1408 359.284 28.9891 361.357 27.7983C362.373 27.2126 363.429 26.627 364.465 26.0413C365.54 25.4947 366.596 24.9482 367.671 24.382C384.717 15.4999 403.561 8.76504 423.129 4.72414C425.573 4.27515 428.036 3.80664 430.499 3.33813C432.962 2.90867 435.445 2.59633 437.928 2.24494L441.642 1.73739L445.375 1.38601L449.109 1.05415C450.36 0.937019 451.592 0.819891 452.843 0.761328C455.326 0.6442 457.828 0.370901 460.33 0.253774C460.936 0.234253 461.581 0 462.187 0H464.064L467.797 0.195212L471.531 0.312341C472.782 0.312341 474.014 0.468506 475.265 0.52707L482.674 0.95654C484.355 0.976061 483.26 0.99558 483.69 1.0151L483.886 1.03462L484.277 1.07367L485.039 1.17127L486.603 1.34696L489.711 1.71787L491.275 1.89356L492.037 1.99116L492.995 2.10829L496.924 2.65489L500.854 3.22101L502.809 3.51382C503.454 3.61143 504.021 3.74808 504.627 3.8652C507.011 4.35324 509.416 4.84127 511.801 5.30978C512.993 5.54403 514.166 5.85637 515.339 6.14919L518.877 7.04717L522.376 7.94514L525.836 8.97977C528.124 9.68254 530.43 10.3463 532.698 11.1271C534.946 11.9275 537.194 12.7279 539.423 13.5282C557.153 20.224 573.319 29.1647 587.238 39.5696C588.118 40.2138 588.978 40.858 589.857 41.5022C590.698 42.1659 591.539 42.8491 592.379 43.5324C594.041 44.8793 595.722 46.1873 597.325 47.5733C600.492 50.4039 603.639 53.0978 606.532 56.0455C607.275 56.7678 607.979 57.4901 608.722 58.1928L609.797 59.2665L610.833 60.3792C612.201 61.8628 613.57 63.3465 614.899 64.791L615.915 65.8842L616.873 67.0164C617.499 67.7778 618.144 68.5196 618.75 69.2809C620.001 70.784 621.291 72.2286 622.425 73.7708C628.778 81.9307 634.154 90.1882 638.611 98.3481C640.781 102.311 642.716 106.254 644.436 110.139C649.715 122.027 653.116 133.33 655.247 143.403C655.481 144.672 655.735 145.902 655.97 147.132C656.205 148.342 656.478 149.533 656.615 150.724C656.947 153.105 657.28 155.37 657.592 157.556C657.847 159.762 658.003 161.87 658.179 163.881C658.257 164.876 658.355 165.853 658.433 166.829C658.472 167.785 658.687 168.703 658.726 169.62C658.687 171.455 659 173.193 659 174.793Z" fill="url(#paint6_linear_1032_23779)"/>
<path opacity="0.4" d="M659 175.335V176C652.854 168.017 642.597 153.968 636 147.55C635.062 145.457 635.883 147.257 636 147.55C632.32 139.156 626.174 132.171 619.694 123.092C613.254 113.994 605.092 105.052 595.559 96.7947C594.424 95.7185 593.093 94.7793 591.879 93.7619C591.253 93.2727 590.626 92.764 590 92.2748L589.08 91.5313C588.747 91.2769 588.414 91.0617 588.101 90.8073C586.79 89.8681 585.478 88.9094 584.167 87.9506L583.188 87.2267L582.151 86.5614C581.466 86.1114 580.78 85.6614 580.095 85.2113C577.394 83.3525 574.477 81.7285 571.639 80.0262C570.191 79.2044 568.664 78.4413 567.196 77.6586C566.471 77.2673 565.728 76.8564 564.984 76.4846C564.22 76.1324 563.457 75.7607 562.694 75.4085C550.518 69.5581 537.227 65.3122 523.603 62.9837C521.9 62.7098 520.197 62.4555 518.475 62.1815C516.772 61.9467 515.03 61.8098 513.327 61.6141L510.743 61.3402L508.159 61.2032L505.575 61.0467C504.714 61.0075 503.872 60.9293 502.991 60.9293C501.269 60.9293 499.546 60.9097 497.824 60.8901C497.393 60.8901 496.943 60.8706 496.551 60.8901L495.397 60.9488L493.106 61.0662L490.816 61.1836C490.62 61.1836 490.483 61.1836 490.209 61.2032L487.86 61.3793L484.729 61.5945L482.38 61.7706L481.988 61.7902H481.851C481.851 61.7902 481.029 61.7902 482.399 61.8098L477.329 62.5142C476.488 62.6316 475.646 62.7098 474.824 62.8859L472.338 63.3555L469.852 63.8251L468.619 64.0599C468.208 64.1382 467.797 64.2556 467.405 64.3534C465.78 64.7447 464.156 65.1361 462.551 65.5274C461.729 65.7035 460.946 65.9579 460.163 66.1927L457.794 66.897L455.426 67.5819L453.116 68.3841C451.569 68.932 450.023 69.4211 448.535 70.0081C447.048 70.6147 445.54 71.2017 444.053 71.8278C432.249 76.8173 421.64 83.2742 412.616 90.6508L410.913 92.0009L409.308 93.4488C408.231 94.4076 407.135 95.3076 406.117 96.286C406.078 96.3251 406.039 96.3642 406 96.4034C431.936 65.8405 473.923 46 521.333 46C569.897 46 612.804 66.8383 638.545 98.6535C640.717 102.626 642.655 106.578 644.378 110.472C649.663 122.388 653.069 133.717 655.203 143.813C655.437 145.085 655.692 146.318 655.927 147.55C656.162 148.763 656.436 149.957 656.573 151.151C656.906 153.538 657.238 155.807 657.551 157.999C657.806 160.21 657.963 162.323 658.139 164.338C658.217 165.336 658.315 166.315 658.393 167.293C658.432 168.252 658.648 169.171 658.687 170.091C658.687 171.989 659 173.73 659 175.335Z" fill="url(#paint7_linear_1032_23779)"/>
<path d="M211.779 518.327V535.702C211.779 541.31 246.873 545.868 290.15 545.868C333.426 545.868 368.52 541.31 368.52 535.702V518.327H211.779Z" fill="url(#paint8_linear_1032_23779)"/>
<path d="M368.501 518.327C368.501 523.934 333.407 528.493 290.131 528.493C246.854 528.493 211.76 523.934 211.76 518.327C211.76 512.72 246.854 508.161 290.131 508.161C333.407 508.161 368.501 512.701 368.501 518.327Z" fill="url(#paint9_linear_1032_23779)"/>
<path d="M290.131 529.199C251.794 529.199 211.722 525.537 211.722 518.48C211.722 518.098 211.856 517.412 212.256 517.412C212.638 517.412 212.485 517.946 212.485 518.327C212.485 522.809 244.375 527.787 290.15 527.787C335.924 527.787 367.814 522.79 367.814 518.327C367.814 517.946 367.871 517.583 368.272 517.583C368.673 517.583 368.558 518.098 368.558 518.48C368.558 525.537 328.467 529.199 290.131 529.199Z" fill="url(#paint10_linear_1032_23779)"/>
<path d="M282.73 518.88C283.493 518.346 284.313 517.831 285.191 517.297C286.049 516.782 287.193 516.305 288.567 515.886C289.94 515.466 291.656 515.123 293.735 514.856C295.795 514.589 298.389 514.455 301.479 514.436C304.511 514.417 307.353 514.512 310.004 514.722C312.656 514.932 315.002 515.237 317.023 515.657C319.045 516.076 320.685 516.572 321.944 517.183C323.203 517.793 323.947 518.48 324.195 519.262L333.025 519.357C333.674 519.357 334.227 519.414 334.723 519.51C335.219 519.605 335.448 519.738 335.448 519.891V520.616L324.099 520.501C323.699 521.398 322.688 522.199 321.067 522.943C319.446 523.687 317.367 524.316 314.849 524.869L310.71 524.297C310.348 524.24 310.043 524.163 309.795 524.087C309.566 523.992 309.432 523.915 309.432 523.801C309.432 523.667 309.757 523.496 310.386 523.324C311.034 523.152 311.74 522.924 312.541 522.657C313.342 522.39 314.124 522.084 314.906 521.722C315.669 521.36 316.184 520.94 316.451 520.425L289.673 520.158C288.967 520.673 288.185 521.188 287.308 521.684C286.43 522.18 285.286 522.638 283.837 523.038C282.387 523.439 280.594 523.763 278.458 524.011C276.303 524.259 273.594 524.392 270.333 524.411C267.873 524.43 265.488 524.335 263.142 524.125C260.797 523.934 258.718 523.629 256.906 523.229C255.094 522.828 253.606 522.351 252.443 521.76C251.279 521.169 250.631 520.501 250.497 519.758L243.23 519.681C242.582 519.681 242.029 519.624 241.514 519.529C241.018 519.433 240.751 519.3 240.751 519.147V518.422L250.688 518.518C251.127 517.755 252.023 517.087 253.396 516.515C254.77 515.943 256.448 515.447 258.432 514.989L261.75 515.447C262.761 515.581 263.257 515.752 263.257 515.943C263.257 516.038 263.047 516.172 262.628 516.324C262.208 516.477 261.712 516.668 261.14 516.877C260.568 517.087 260.015 517.335 259.481 517.621C258.946 517.907 258.546 518.232 258.279 518.594L282.73 518.88ZM258.222 519.872C258.412 520.349 258.87 520.749 259.538 521.112C260.205 521.455 261.044 521.741 262.055 521.97C263.066 522.199 264.191 522.351 265.45 522.466C266.709 522.561 268.044 522.618 269.417 522.618C271.02 522.618 272.431 522.542 273.633 522.409C274.815 522.275 275.864 522.103 276.78 521.875C277.676 521.646 278.477 521.398 279.145 521.093C279.812 520.787 280.422 520.482 280.957 520.12L258.222 519.872ZM316.508 519.223C316.318 518.747 315.822 518.308 315.059 517.946C314.296 517.583 313.323 517.278 312.16 517.03C310.977 516.782 309.604 516.591 308.04 516.477C306.476 516.363 304.759 516.305 302.871 516.305C301.193 516.305 299.743 516.382 298.542 516.534C297.34 516.668 296.291 516.858 295.395 517.106C294.517 517.354 293.754 517.621 293.125 517.946C292.496 518.27 291.923 518.613 291.389 518.976L316.508 519.223Z" fill="#FCB048"/>
<path d="M290.15 509.248C255.208 509.248 218.817 512.319 213 518.27C213.229 518.48 213.439 518.708 213.629 518.937C218.531 514.799 248.571 510.641 290.131 510.641C332.758 510.641 363.275 515.027 366.975 519.262C367.166 519.033 367.356 518.804 367.566 518.594C362.779 512.434 325.701 509.248 290.15 509.248Z" fill="url(#paint11_linear_1032_23779)"/>
<path d="M189.979 500.074V517.45C189.979 523.057 225.073 527.615 268.349 527.615C311.626 527.615 346.72 523.057 346.72 517.45V500.074H189.979Z" fill="url(#paint12_linear_1032_23779)"/>
<path d="M346.72 500.074C346.72 505.682 311.626 510.24 268.349 510.24C225.073 510.24 189.979 505.682 189.979 500.074C189.979 494.467 225.073 489.909 268.349 489.909C311.626 489.889 346.72 494.448 346.72 500.074Z" fill="url(#paint13_linear_1032_23779)"/>
<path d="M268.349 510.927C230.013 510.927 189.941 507.265 189.941 500.208C189.941 499.826 190.074 499.14 190.475 499.14C190.856 499.14 190.704 499.674 190.704 500.055C190.704 504.537 222.594 509.515 268.368 509.515C314.143 509.515 346.033 504.518 346.033 500.055C346.033 499.674 346.09 499.311 346.491 499.311C346.872 499.311 346.777 499.826 346.777 500.208C346.758 507.284 306.686 510.927 268.349 510.927Z" fill="url(#paint14_linear_1032_23779)"/>
<path d="M260.949 500.627C261.712 500.093 262.532 499.578 263.409 499.044C264.268 498.529 265.412 498.053 266.785 497.633C268.159 497.213 269.875 496.87 271.954 496.603C274.014 496.336 276.608 496.203 279.698 496.183C282.73 496.164 285.572 496.26 288.223 496.47C290.874 496.679 293.22 496.984 295.242 497.404C297.264 497.824 298.904 498.32 300.163 498.93C301.422 499.54 302.165 500.227 302.413 501.009L311.244 501.104C311.893 501.104 312.446 501.161 312.942 501.257C313.437 501.352 313.666 501.486 313.666 501.638V502.363L302.318 502.249C301.918 503.145 300.907 503.946 299.285 504.69C297.664 505.434 295.585 506.063 293.068 506.616L288.929 506.044C288.567 505.987 288.261 505.911 288.013 505.834C287.765 505.739 287.651 505.663 287.651 505.548C287.651 505.415 287.975 505.243 288.605 505.071C289.253 504.9 289.959 504.671 290.76 504.404C291.561 504.137 292.343 503.832 293.125 503.469C293.888 503.107 294.403 502.687 294.67 502.172L267.892 501.905C267.186 502.42 266.404 502.935 265.527 503.431C264.649 503.927 263.505 504.385 262.055 504.785C260.606 505.186 258.813 505.51 256.677 505.758C254.521 506.006 251.813 506.139 248.552 506.159C246.091 506.178 243.707 506.082 241.361 505.872C239.015 505.682 236.936 505.377 235.124 504.976C233.312 504.576 231.825 504.099 230.661 503.507C229.498 502.916 228.849 502.249 228.716 501.505L221.449 501.428C220.801 501.428 220.248 501.371 219.733 501.276C219.237 501.181 218.97 501.047 218.97 500.894V500.17L228.907 500.265C229.345 499.502 230.242 498.835 231.615 498.262C232.988 497.69 234.667 497.194 236.65 496.756L239.969 497.213C240.98 497.347 241.476 497.519 241.476 497.709C241.476 497.805 241.266 497.938 240.846 498.091C240.427 498.243 239.931 498.434 239.359 498.644C238.786 498.854 238.233 499.102 237.699 499.388C237.165 499.674 236.765 499.998 236.498 500.36L260.949 500.627ZM236.44 501.619C236.631 502.096 237.089 502.497 237.756 502.859C238.424 503.202 239.263 503.488 240.274 503.717C241.285 503.946 242.41 504.099 243.669 504.213C244.928 504.308 246.263 504.366 247.636 504.366C249.238 504.366 250.65 504.289 251.851 504.156C253.034 504.022 254.083 503.851 254.998 503.622C255.895 503.393 256.696 503.145 257.363 502.84C258.031 502.535 258.641 502.23 259.175 501.867L236.44 501.619ZM294.727 500.971C294.536 500.494 294.04 500.055 293.278 499.693C292.515 499.33 291.542 499.025 290.378 498.777C289.196 498.529 287.823 498.339 286.259 498.224C284.695 498.11 282.978 498.053 281.09 498.053C279.412 498.053 277.962 498.129 276.76 498.281C275.559 498.415 274.51 498.606 273.613 498.854C272.736 499.102 271.973 499.369 271.344 499.693C270.714 500.017 270.142 500.36 269.608 500.723L294.727 500.971Z" fill="#FCB048"/>
<path d="M268.368 490.996C233.427 490.996 197.036 494.066 191.219 500.017C191.448 500.227 191.657 500.456 191.848 500.685C196.75 496.546 226.79 492.388 268.349 492.388C310.977 492.388 341.494 496.775 345.194 501.009C345.385 500.78 345.575 500.551 345.785 500.341C340.998 494.181 303.92 490.996 268.368 490.996Z" fill="url(#paint15_linear_1032_23779)"/>
<path d="M208.785 481.86V499.235C208.785 504.843 243.879 509.401 287.155 509.401C330.431 509.401 365.525 504.843 365.525 499.235V481.86H208.785Z" fill="url(#paint16_linear_1032_23779)"/>
<path d="M365.506 481.86C365.506 487.467 330.412 492.026 287.136 492.026C243.86 492.026 208.766 487.467 208.766 481.86C208.766 476.252 243.86 471.694 287.136 471.694C330.431 471.694 365.506 476.252 365.506 481.86Z" fill="url(#paint17_linear_1032_23779)"/>
<path d="M287.155 492.731C248.819 492.731 208.747 489.069 208.747 482.012C208.747 481.631 208.88 480.944 209.281 480.944C209.662 480.944 209.509 481.478 209.509 481.86C209.509 486.342 241.399 491.32 287.174 491.32C332.949 491.32 364.839 486.323 364.839 481.86C364.839 481.478 364.896 481.116 365.296 481.116C365.678 481.116 365.583 481.631 365.583 482.012C365.563 489.069 325.472 492.731 287.155 492.731Z" fill="url(#paint18_linear_1032_23779)"/>
<path d="M279.736 482.432C280.499 481.898 281.319 481.383 282.196 480.849C283.054 480.334 284.199 479.857 285.572 479.437C286.945 479.018 288.662 478.675 290.741 478.408C292.801 478.141 295.394 478.007 298.484 477.988C301.517 477.969 304.359 478.064 307.01 478.274C309.661 478.484 312.007 478.789 314.029 479.209C316.05 479.628 317.691 480.124 318.949 480.734C320.208 481.345 320.952 482.031 321.2 482.813L330.031 482.909C330.679 482.909 331.232 482.966 331.728 483.061C332.224 483.157 332.453 483.29 332.453 483.443V484.168L321.105 484.053C320.704 484.949 319.693 485.751 318.072 486.494C316.451 487.238 314.372 487.868 311.854 488.421L307.716 487.849C307.353 487.791 307.048 487.715 306.8 487.639C306.552 487.543 306.438 487.467 306.438 487.353C306.438 487.219 306.762 487.048 307.391 486.876C308.04 486.704 308.745 486.475 309.547 486.208C310.348 485.941 311.13 485.636 311.912 485.274C312.674 484.911 313.189 484.492 313.456 483.977L286.678 483.71C285.972 484.225 285.19 484.74 284.313 485.236C283.436 485.732 282.291 486.189 280.842 486.59C279.392 486.99 277.599 487.315 275.463 487.563C273.308 487.81 270.6 487.944 267.338 487.963C264.878 487.982 262.494 487.887 260.148 487.677C257.802 487.486 255.723 487.181 253.911 486.781C252.099 486.38 250.611 485.903 249.448 485.312C248.285 484.721 247.636 484.053 247.503 483.309L240.236 483.233C239.587 483.233 239.034 483.176 238.519 483.08C238.023 482.985 237.756 482.852 237.756 482.699V481.974L247.693 482.07C248.132 481.307 249.028 480.639 250.402 480.067C251.775 479.495 253.453 478.999 255.437 478.56L258.756 479.018C259.766 479.151 260.262 479.323 260.262 479.514C260.262 479.609 260.052 479.743 259.633 479.895C259.213 480.048 258.717 480.239 258.145 480.448C257.573 480.658 257.02 480.906 256.486 481.192C255.952 481.478 255.551 481.802 255.284 482.165L279.736 482.432ZM255.246 483.424C255.437 483.901 255.895 484.301 256.562 484.663C257.23 485.007 258.069 485.293 259.08 485.522C260.091 485.751 261.216 485.903 262.475 486.018C263.734 486.113 265.069 486.17 266.442 486.17C268.044 486.17 269.455 486.094 270.657 485.96C271.84 485.827 272.889 485.655 273.804 485.426C274.7 485.197 275.501 484.95 276.169 484.644C276.837 484.339 277.447 484.034 277.981 483.672L255.246 483.424ZM313.533 482.775C313.342 482.298 312.846 481.86 312.083 481.497C311.32 481.135 310.348 480.83 309.184 480.582C308.002 480.334 306.628 480.143 305.064 480.029C303.5 479.914 301.784 479.857 299.896 479.857C298.217 479.857 296.768 479.933 295.566 480.086C294.365 480.219 293.316 480.41 292.419 480.658C291.542 480.906 290.779 481.173 290.149 481.497C289.52 481.822 288.948 482.165 288.414 482.527L313.533 482.775Z" fill="#FCB048"/>
<path d="M287.155 472.8C252.214 472.8 215.823 475.871 210.005 481.822C210.234 482.031 210.444 482.26 210.635 482.489C215.536 478.35 245.576 474.192 287.136 474.192C329.764 474.192 360.28 478.579 363.98 482.813C364.171 482.584 364.362 482.356 364.572 482.146C359.784 475.985 322.726 472.8 287.155 472.8Z" fill="url(#paint19_linear_1032_23779)"/>
<path d="M220.19 463.607V480.982C220.19 486.59 255.284 491.148 298.561 491.148C341.837 491.148 376.931 486.59 376.931 480.982V463.607H220.19Z" fill="url(#paint20_linear_1032_23779)"/>
<path d="M298.561 473.773C341.843 473.773 376.931 469.221 376.931 463.607C376.931 457.993 341.843 453.441 298.561 453.441C255.278 453.441 220.19 457.993 220.19 463.607C220.19 469.221 255.278 473.773 298.561 473.773Z" fill="url(#paint21_linear_1032_23779)"/>
<path d="M298.561 474.479C260.224 474.479 220.152 470.817 220.152 463.76C220.152 463.378 220.286 462.691 220.686 462.691C221.068 462.691 220.915 463.226 220.915 463.607C220.915 468.089 252.805 473.067 298.58 473.067C344.355 473.067 376.244 468.07 376.244 463.607C376.244 463.226 376.302 462.863 376.702 462.863C377.103 462.863 376.988 463.378 376.988 463.76C376.969 470.817 336.878 474.479 298.561 474.479Z" fill="url(#paint22_linear_1032_23779)"/>
<path d="M291.141 464.179C291.904 463.645 292.724 463.13 293.602 462.596C294.46 462.081 295.604 461.604 296.978 461.185C298.351 460.765 300.068 460.422 302.146 460.155C304.206 459.888 306.8 459.754 309.89 459.735C312.923 459.716 315.764 459.811 318.416 460.021C321.067 460.231 323.413 460.536 325.434 460.956C327.456 461.375 329.096 461.871 330.355 462.482C331.614 463.092 332.358 463.779 332.606 464.561L341.437 464.656C342.085 464.656 342.638 464.713 343.134 464.809C343.63 464.904 343.859 465.037 343.859 465.19V465.915L332.51 465.8C332.11 466.697 331.099 467.498 329.478 468.242C327.857 468.986 325.778 469.615 323.26 470.168L319.121 469.596C318.759 469.539 318.454 469.462 318.206 469.386C317.977 469.291 317.843 469.214 317.843 469.1C317.843 468.966 318.168 468.795 318.797 468.623C319.446 468.452 320.151 468.223 320.952 467.956C321.753 467.689 322.535 467.383 323.317 467.021C324.08 466.659 324.595 466.239 324.862 465.724L298.084 465.457C297.378 465.972 296.596 466.487 295.719 466.983C294.842 467.479 293.697 467.937 292.248 468.337C290.798 468.738 289.005 469.062 286.869 469.31C284.714 469.558 282.006 469.691 278.744 469.71C276.284 469.729 273.9 469.634 271.554 469.424C269.208 469.233 267.129 468.928 265.317 468.528C263.505 468.127 262.017 467.65 260.854 467.059C259.69 466.468 259.042 465.8 258.908 465.057L251.642 464.98C250.993 464.98 250.44 464.923 249.925 464.828C249.429 464.732 249.162 464.599 249.162 464.446V463.721L259.099 463.817C259.538 463.054 260.434 462.386 261.807 461.814C263.181 461.242 264.859 460.746 266.843 460.307L270.161 460.765C271.172 460.899 271.668 461.07 271.668 461.261C271.668 461.356 271.458 461.49 271.039 461.642C270.619 461.795 270.123 461.986 269.551 462.196C268.979 462.405 268.426 462.653 267.892 462.939C267.358 463.226 266.957 463.55 266.69 463.912L291.141 464.179ZM266.652 465.152C266.843 465.629 267.3 466.029 267.968 466.392C268.635 466.735 269.475 467.021 270.486 467.25C271.496 467.479 272.622 467.631 273.881 467.746C275.139 467.841 276.474 467.898 277.848 467.898C279.45 467.898 280.861 467.822 282.063 467.689C283.245 467.555 284.294 467.383 285.21 467.155C286.106 466.926 286.907 466.678 287.575 466.373C288.242 466.067 288.853 465.762 289.387 465.4L266.652 465.152ZM324.938 464.503C324.748 464.027 324.252 463.588 323.489 463.226C322.726 462.863 321.753 462.558 320.59 462.31C319.407 462.062 318.034 461.871 316.47 461.757C314.906 461.643 313.19 461.585 311.301 461.585C309.623 461.585 308.173 461.662 306.972 461.814C305.77 461.948 304.721 462.138 303.825 462.386C302.948 462.634 302.185 462.901 301.555 463.226C300.926 463.55 300.354 463.893 299.82 464.256L324.938 464.503Z" fill="#FCB048"/>
<path d="M298.561 454.528C263.619 454.528 227.228 457.599 221.411 463.55C221.64 463.76 221.85 463.988 222.041 464.217C226.942 460.079 256.982 455.921 298.542 455.921C341.169 455.921 371.686 460.307 375.386 464.542C375.577 464.313 375.768 464.084 375.977 463.874C371.19 457.714 334.132 454.528 298.561 454.528Z" fill="url(#paint23_linear_1032_23779)"/>
<path d="M211.779 443.905V461.28C211.779 466.888 246.873 471.446 290.15 471.446C333.426 471.446 368.52 466.888 368.52 461.28V443.905H211.779Z" fill="url(#paint24_linear_1032_23779)"/>
<path d="M368.501 443.905C368.501 449.512 333.407 454.071 290.131 454.071C246.854 454.071 211.76 449.512 211.76 443.905C211.76 438.297 246.854 433.739 290.131 433.739C333.407 433.739 368.501 438.297 368.501 443.905Z" fill="url(#paint25_linear_1032_23779)"/>
<path d="M290.131 454.776C251.794 454.776 211.722 451.114 211.722 444.057C211.722 443.676 211.856 442.989 212.256 442.989C212.638 442.989 212.485 443.523 212.485 443.905C212.485 448.387 244.375 453.365 290.15 453.365C335.924 453.365 367.814 448.368 367.814 443.905C367.814 443.523 367.871 443.161 368.272 443.161C368.673 443.161 368.558 443.676 368.558 444.057C368.558 451.114 328.467 454.776 290.131 454.776Z" fill="url(#paint26_linear_1032_23779)"/>
<path d="M282.73 444.477C283.493 443.943 284.313 443.428 285.191 442.894C286.049 442.379 287.193 441.902 288.567 441.483C289.94 441.063 291.656 440.72 293.735 440.453C295.795 440.186 298.389 440.052 301.479 440.033C304.511 440.014 307.353 440.109 310.004 440.319C312.656 440.529 315.002 440.834 317.023 441.254C319.045 441.673 320.685 442.169 321.944 442.779C323.203 443.39 323.947 444.076 324.195 444.858L333.025 444.954C333.674 444.954 334.227 445.011 334.723 445.106C335.219 445.202 335.448 445.335 335.448 445.488V446.213L324.099 446.098C323.699 446.995 322.688 447.796 321.067 448.539C319.446 449.283 317.367 449.913 314.849 450.466L310.71 449.894C310.348 449.836 310.043 449.76 309.795 449.684C309.566 449.588 309.432 449.512 309.432 449.398C309.432 449.264 309.757 449.093 310.386 448.921C311.034 448.749 311.74 448.52 312.541 448.253C313.342 447.986 314.124 447.681 314.906 447.319C315.669 446.956 316.184 446.537 316.451 446.022L289.673 445.755C288.967 446.27 288.185 446.785 287.308 447.281C286.43 447.777 285.286 448.234 283.837 448.635C282.387 449.035 280.594 449.36 278.458 449.608C276.303 449.855 273.594 449.989 270.333 450.008C267.873 450.027 265.488 449.932 263.142 449.722C260.797 449.531 258.718 449.226 256.906 448.826C255.094 448.425 253.606 447.948 252.443 447.357C251.279 446.766 250.631 446.098 250.497 445.354L243.23 445.278C242.582 445.278 242.029 445.221 241.514 445.125C241.018 445.03 240.751 444.897 240.751 444.744V444.019L250.688 444.115C251.127 443.352 252.023 442.684 253.396 442.112C254.77 441.54 256.448 441.044 258.432 440.586L261.75 441.044C262.761 441.177 263.257 441.349 263.257 441.54C263.257 441.635 263.047 441.769 262.628 441.921C262.208 442.074 261.712 442.264 261.14 442.474C260.568 442.684 260.015 442.932 259.481 443.218C258.946 443.504 258.546 443.828 258.279 444.191L282.73 444.477ZM258.222 445.469C258.412 445.946 258.87 446.346 259.538 446.708C260.205 447.052 261.044 447.338 262.055 447.567C263.066 447.796 264.191 447.948 265.45 448.063C266.709 448.158 268.044 448.215 269.417 448.215C271.02 448.215 272.431 448.139 273.633 448.005C274.815 447.872 275.864 447.7 276.78 447.471C277.676 447.243 278.477 446.995 279.145 446.689C279.812 446.384 280.422 446.079 280.957 445.717L258.222 445.469ZM316.508 444.82C316.318 444.343 315.822 443.905 315.059 443.542C314.296 443.18 313.323 442.875 312.16 442.627C310.977 442.379 309.604 442.188 308.04 442.074C306.476 441.959 304.759 441.902 302.871 441.902C301.193 441.902 299.743 441.978 298.542 442.131C297.34 442.265 296.291 442.455 295.395 442.703C294.517 442.951 293.754 443.218 293.125 443.542C292.496 443.867 291.923 444.21 291.389 444.572L316.508 444.82Z" fill="#FCB048"/>
<path d="M290.15 434.845C255.208 434.845 218.817 437.916 213 443.867C213.229 444.076 213.439 444.305 213.629 444.534C218.531 440.395 248.571 436.237 290.131 436.237C332.758 436.237 363.275 440.624 366.975 444.858C367.166 444.63 367.356 444.401 367.566 444.191C362.779 438.03 325.701 434.845 290.15 434.845Z" fill="url(#paint27_linear_1032_23779)"/>
<path d="M189.979 425.652V443.027C189.979 448.635 225.073 453.193 268.349 453.193C311.626 453.193 346.72 448.635 346.72 443.027V425.652H189.979Z" fill="url(#paint28_linear_1032_23779)"/>
<path d="M268.349 435.818C311.632 435.818 346.72 431.266 346.72 425.652C346.72 420.038 311.632 415.486 268.349 415.486C225.067 415.486 189.979 420.038 189.979 425.652C189.979 431.266 225.067 435.818 268.349 435.818Z" fill="url(#paint29_linear_1032_23779)"/>
<path d="M268.349 436.524C230.013 436.524 189.941 432.862 189.941 425.805C189.941 425.423 190.074 424.737 190.475 424.737C190.856 424.737 190.704 425.271 190.704 425.652C190.704 430.134 222.594 435.112 268.368 435.112C314.143 435.112 346.033 430.115 346.033 425.652C346.033 425.271 346.09 424.908 346.491 424.908C346.872 424.908 346.777 425.423 346.777 425.805C346.758 432.862 306.686 436.524 268.349 436.524Z" fill="url(#paint30_linear_1032_23779)"/>
<path d="M260.949 426.205C261.712 425.671 262.532 425.156 263.409 424.622C264.268 424.107 265.412 423.63 266.785 423.211C268.159 422.791 269.875 422.448 271.954 422.181C274.014 421.914 276.608 421.78 279.698 421.761C282.73 421.742 285.572 421.838 288.223 422.047C290.874 422.257 293.22 422.562 295.242 422.982C297.264 423.401 298.904 423.897 300.163 424.508C301.422 425.118 302.165 425.805 302.413 426.587L311.244 426.682C311.893 426.682 312.446 426.739 312.942 426.835C313.437 426.93 313.666 427.063 313.666 427.216V427.941L302.318 427.826C301.917 428.723 300.907 429.524 299.285 430.268C297.664 431.012 295.585 431.641 293.068 432.194L288.929 431.622C288.566 431.565 288.261 431.488 288.013 431.412C287.765 431.317 287.651 431.24 287.651 431.126C287.651 430.992 287.975 430.821 288.605 430.649C289.253 430.477 289.959 430.249 290.76 429.982C291.561 429.715 292.343 429.409 293.125 429.047C293.888 428.685 294.403 428.265 294.67 427.75L267.911 427.521C267.205 428.036 266.423 428.551 265.546 429.047C264.668 429.543 263.524 430.001 262.074 430.401C260.625 430.802 258.832 431.126 256.696 431.374C254.541 431.622 251.832 431.755 248.571 431.774C246.11 431.794 243.726 431.698 241.38 431.488C239.034 431.298 236.955 430.992 235.143 430.592C233.332 430.191 231.844 429.715 230.68 429.123C229.517 428.532 228.868 427.865 228.735 427.121L221.468 427.044C220.82 427.044 220.267 426.987 219.752 426.892C219.256 426.796 218.989 426.663 218.989 426.51V425.786L228.926 425.881C229.364 425.118 230.261 424.45 231.634 423.878C233.007 423.306 234.686 422.81 236.669 422.372L239.988 422.829C240.999 422.963 241.495 423.134 241.495 423.325C241.495 423.421 241.285 423.554 240.865 423.707C240.446 423.859 239.95 424.05 239.378 424.26C238.805 424.47 238.252 424.718 237.718 425.004C237.184 425.29 236.784 425.614 236.517 425.976L260.949 426.205ZM236.44 427.197C236.631 427.674 237.089 428.074 237.756 428.437C238.424 428.78 239.263 429.066 240.274 429.295C241.285 429.524 242.41 429.676 243.669 429.791C244.928 429.886 246.263 429.943 247.636 429.943C249.238 429.943 250.65 429.867 251.851 429.734C253.034 429.6 254.083 429.429 254.998 429.2C255.895 428.971 256.696 428.723 257.363 428.418C258.031 428.112 258.641 427.807 259.175 427.445L236.44 427.197ZM294.727 426.548C294.536 426.072 294.04 425.652 293.277 425.271C292.515 424.908 291.542 424.603 290.378 424.355C289.196 424.107 287.823 423.916 286.259 423.802C284.695 423.688 282.978 423.63 281.09 423.63C279.412 423.63 277.962 423.707 276.76 423.859C275.559 423.993 274.51 424.183 273.613 424.431C272.736 424.679 271.973 424.946 271.344 425.271C270.714 425.595 270.142 425.938 269.608 426.301L294.727 426.548Z" fill="#FCB048"/>
<path d="M268.368 416.573C233.427 416.573 197.036 419.644 191.219 425.595C191.448 425.805 191.657 426.034 191.848 426.262C196.75 422.124 226.79 417.966 268.349 417.966C310.977 417.966 341.494 422.352 345.194 426.587C345.385 426.358 345.575 426.129 345.785 425.919C340.998 419.759 303.92 416.573 268.368 416.573Z" fill="url(#paint31_linear_1032_23779)"/>
<path d="M208.785 407.438V424.813C208.785 430.42 243.879 434.979 287.155 434.979C330.431 434.979 365.525 430.42 365.525 424.813V407.438H208.785Z" fill="url(#paint32_linear_1032_23779)"/>
<path d="M287.155 417.603C330.438 417.603 365.525 413.052 365.525 407.438C365.525 401.823 330.438 397.272 287.155 397.272C243.872 397.272 208.785 401.823 208.785 407.438C208.785 413.052 243.872 417.603 287.155 417.603Z" fill="url(#paint33_linear_1032_23779)"/>
<path d="M287.155 418.309C248.819 418.309 208.747 414.647 208.747 407.59C208.747 407.209 208.88 406.522 209.281 406.522C209.662 406.522 209.509 407.056 209.509 407.438C209.509 411.92 241.399 416.898 287.174 416.898C332.949 416.898 364.839 411.901 364.839 407.438C364.839 407.056 364.896 406.694 365.296 406.694C365.678 406.694 365.583 407.209 365.583 407.59C365.563 414.666 325.472 418.309 287.155 418.309Z" fill="url(#paint34_linear_1032_23779)"/>
<path d="M279.736 408.01C280.499 407.476 281.319 406.961 282.196 406.427C283.054 405.912 284.199 405.435 285.572 405.015C286.945 404.596 288.662 404.252 290.741 403.985C292.801 403.718 295.394 403.585 298.484 403.566C301.517 403.547 304.359 403.642 307.01 403.852C309.661 404.062 312.007 404.367 314.029 404.786C316.05 405.206 317.691 405.702 318.949 406.312C320.208 406.923 320.952 407.609 321.2 408.391L330.031 408.487C330.679 408.487 331.232 408.544 331.728 408.639C332.224 408.734 332.453 408.868 332.453 409.021V409.745L321.105 409.631C320.704 410.527 319.693 411.328 318.072 412.072C316.451 412.816 314.372 413.445 311.854 413.999L307.716 413.426C307.353 413.369 307.048 413.293 306.8 413.217C306.552 413.121 306.438 413.045 306.438 412.93C306.438 412.797 306.762 412.625 307.391 412.454C308.04 412.282 308.745 412.053 309.547 411.786C310.348 411.519 311.13 411.214 311.912 410.852C312.674 410.489 313.189 410.07 313.456 409.555L286.678 409.288C285.972 409.803 285.19 410.317 284.313 410.813C283.436 411.309 282.291 411.767 280.842 412.168C279.392 412.568 277.599 412.892 275.463 413.14C273.308 413.388 270.6 413.522 267.338 413.541C264.878 413.56 262.494 413.465 260.148 413.255C257.802 413.064 255.723 412.759 253.911 412.358C252.099 411.958 250.611 411.481 249.448 410.89C248.285 410.298 247.636 409.631 247.503 408.887L240.236 408.811C239.587 408.811 239.034 408.754 238.519 408.658C238.023 408.563 237.756 408.429 237.756 408.277V407.552L247.693 407.647C248.132 406.884 249.028 406.217 250.402 405.645C251.775 405.072 253.453 404.577 255.437 404.138L258.756 404.596C259.766 404.729 260.262 404.901 260.262 405.092C260.262 405.187 260.052 405.32 259.633 405.473C259.213 405.626 258.717 405.816 258.145 406.026C257.573 406.236 257.02 406.484 256.486 406.77C255.952 407.056 255.551 407.38 255.284 407.743L279.736 408.01ZM255.246 409.001C255.437 409.478 255.895 409.879 256.562 410.241C257.23 410.585 258.069 410.871 259.08 411.099C260.091 411.328 261.216 411.481 262.475 411.595C263.734 411.691 265.069 411.748 266.442 411.748C268.044 411.748 269.455 411.672 270.657 411.538C271.84 411.405 272.889 411.233 273.804 411.004C274.7 410.775 275.501 410.527 276.169 410.222C276.837 409.917 277.447 409.612 277.981 409.249L255.246 409.001ZM313.533 408.353C313.342 407.876 312.846 407.438 312.083 407.075C311.32 406.713 310.348 406.408 309.184 406.16C308.002 405.912 306.628 405.721 305.064 405.607C303.5 405.492 301.784 405.435 299.896 405.435C298.217 405.435 296.768 405.511 295.566 405.664C294.365 405.797 293.316 405.988 292.419 406.236C291.542 406.484 290.779 406.751 290.149 407.075C289.52 407.399 288.948 407.743 288.414 408.105L313.533 408.353Z" fill="#FCB048"/>
<path d="M287.155 398.378C252.214 398.378 215.823 401.449 210.005 407.399C210.234 407.609 210.444 407.838 210.635 408.067C215.536 403.928 245.576 399.77 287.136 399.77C329.764 399.77 360.28 404.157 363.98 408.391C364.171 408.162 364.362 407.933 364.572 407.724C359.784 401.563 322.726 398.378 287.155 398.378Z" fill="url(#paint35_linear_1032_23779)"/>
<path d="M199 389.185V406.56C199 412.168 234.095 416.726 277.371 416.726C320.647 416.726 355.741 412.168 355.741 406.56V389.185H199Z" fill="url(#paint36_linear_1032_23779)"/>
<path d="M277.371 399.351C320.654 399.351 355.741 394.799 355.741 389.185C355.741 383.57 320.654 379.019 277.371 379.019C234.088 379.019 199 383.57 199 389.185C199 394.799 234.088 399.351 277.371 399.351Z" fill="url(#paint37_linear_1032_23779)"/>
<path d="M277.371 400.056C239.034 400.056 198.962 396.394 198.962 389.337C198.962 388.956 199.096 388.269 199.496 388.269C199.878 388.269 199.725 388.803 199.725 389.185C199.725 393.667 231.615 398.645 277.39 398.645C323.165 398.645 355.055 393.648 355.055 389.185C355.055 388.803 355.112 388.441 355.512 388.441C355.894 388.441 355.798 388.956 355.798 389.337C355.779 396.394 315.707 400.056 277.371 400.056Z" fill="url(#paint38_linear_1032_23779)"/>
<path d="M269.971 389.757C270.733 389.223 271.554 388.708 272.431 388.174C273.289 387.659 274.434 387.182 275.807 386.763C277.18 386.343 278.897 386 280.976 385.733C283.035 385.466 285.629 385.332 288.719 385.313C291.752 385.294 294.594 385.389 297.245 385.599C299.896 385.809 302.242 386.114 304.263 386.534C306.285 386.953 307.925 387.449 309.184 388.06C310.443 388.67 311.187 389.356 311.435 390.138L320.266 390.234C320.914 390.234 321.467 390.291 321.963 390.386C322.459 390.482 322.688 390.615 322.688 390.768V391.493L311.34 391.378C310.939 392.275 309.928 393.076 308.307 393.819C306.686 394.563 304.607 395.193 302.089 395.746L297.95 395.174C297.588 395.116 297.283 395.04 297.035 394.964C296.787 394.869 296.673 394.773 296.673 394.678C296.673 394.544 296.997 394.373 297.626 394.201C298.275 394.029 298.98 393.8 299.781 393.533C300.582 393.266 301.364 392.961 302.146 392.599C302.909 392.236 303.424 391.817 303.691 391.302L276.913 391.035C276.207 391.55 275.425 392.065 274.548 392.561C273.671 393.057 272.526 393.514 271.077 393.915C269.627 394.315 267.834 394.64 265.698 394.888C263.543 395.135 260.835 395.269 257.573 395.288C255.113 395.307 252.729 395.212 250.383 395.002C248.037 394.811 245.958 394.506 244.146 394.106C242.334 393.705 240.846 393.228 239.683 392.637C238.519 392.046 237.871 391.378 237.737 390.634L230.471 390.558C229.822 390.558 229.269 390.501 228.754 390.405C228.258 390.31 227.991 390.177 227.991 390.024V389.299L237.928 389.395C238.367 388.632 239.263 387.964 240.637 387.392C242.01 386.82 243.688 386.324 245.672 385.866L248.99 386.324C250.001 386.457 250.497 386.629 250.497 386.82C250.497 386.915 250.287 387.049 249.868 387.201C249.448 387.354 248.952 387.545 248.38 387.754C247.808 387.964 247.255 388.212 246.721 388.498C246.187 388.784 245.786 389.108 245.519 389.471L269.971 389.757ZM245.462 390.749C245.653 391.226 246.11 391.626 246.778 391.988C247.446 392.332 248.285 392.618 249.296 392.847C250.306 393.076 251.432 393.228 252.691 393.343C253.949 393.438 255.284 393.495 256.658 393.495C258.26 393.495 259.671 393.419 260.873 393.285C262.055 393.152 263.104 392.98 264.02 392.751C264.916 392.523 265.717 392.275 266.385 391.969C267.052 391.664 267.663 391.359 268.197 390.997L245.462 390.749ZM303.749 390.1C303.558 389.623 303.062 389.185 302.299 388.822C301.536 388.46 300.563 388.155 299.4 387.907C298.217 387.659 296.844 387.468 295.28 387.354C293.716 387.239 292 387.182 290.111 387.182C288.433 387.182 286.983 387.258 285.782 387.411C284.58 387.545 283.531 387.735 282.635 387.983C281.758 388.231 280.995 388.498 280.365 388.822C279.736 389.147 279.164 389.49 278.63 389.852L303.749 390.1Z" fill="#FCB048"/>
<path d="M277.39 380.125C242.448 380.125 206.057 383.196 200.24 389.147C200.469 389.356 200.679 389.585 200.87 389.814C205.771 385.675 235.811 381.518 277.371 381.518C319.999 381.518 350.515 385.904 354.215 390.138C354.406 389.91 354.597 389.681 354.807 389.471C350.019 383.31 312.942 380.125 277.39 380.125Z" fill="url(#paint39_linear_1032_23779)"/>
<path d="M378.037 401.449L363.866 411.519C359.289 414.781 375.92 446.003 401.001 481.268C426.082 516.534 450.133 542.492 454.71 539.231L468.881 529.16L378.037 401.449Z" fill="url(#paint40_linear_1032_23779)"/>
<path d="M468.881 529.16C464.304 532.422 440.253 506.464 415.172 471.198C390.091 435.932 373.46 404.691 378.037 401.449C382.615 398.187 406.665 424.145 431.746 459.411C456.827 494.677 473.459 525.899 468.881 529.16Z" fill="url(#paint41_linear_1032_23779)"/>
<path d="M414.6 471.599C392.38 440.357 372.125 405.587 377.885 401.487C378.209 401.258 378.839 400.972 379.068 401.296C379.296 401.62 378.762 401.792 378.438 402.002C374.795 404.596 389.214 433.472 415.745 470.778C442.275 508.066 464.819 531.182 468.481 528.569C468.805 528.34 469.129 528.188 469.358 528.512C469.587 528.836 469.11 529.046 468.786 529.275C463.026 533.375 436.82 502.84 414.6 471.599Z" fill="url(#paint42_linear_1032_23779)"/>
<path d="M418.701 459.602C419.578 459.926 420.475 460.288 421.409 460.689C422.325 461.089 423.374 461.738 424.499 462.615C425.643 463.493 426.921 464.694 428.333 466.239C429.744 467.765 431.365 469.806 433.158 472.304C434.932 474.765 436.496 477.13 437.869 479.418C439.242 481.707 440.348 483.786 441.169 485.674C442.008 487.562 442.542 489.184 442.771 490.576C443 491.949 442.866 492.96 442.37 493.628L447.405 500.875C447.768 501.39 448.054 501.886 448.264 502.344C448.474 502.802 448.512 503.069 448.378 503.164L447.787 503.584L441.302 494.276C440.348 494.467 439.09 494.104 437.545 493.208C436 492.312 434.283 490.996 432.376 489.26L430.45 485.56C430.278 485.217 430.164 484.93 430.106 484.682C430.03 484.435 430.049 484.282 430.125 484.225C430.24 484.148 430.545 484.32 431.079 484.721C431.594 485.14 432.204 485.598 432.872 486.094C433.559 486.59 434.264 487.048 435.008 487.486C435.752 487.906 436.4 488.077 436.954 488.001L421.657 466.029C420.837 465.762 419.96 465.4 419.044 464.98C418.129 464.561 417.099 463.874 415.935 462.939C414.772 462.005 413.475 460.727 412.025 459.106C410.576 457.485 408.897 455.368 406.99 452.716C405.56 450.733 404.244 448.73 403.061 446.708C401.859 444.687 400.906 442.818 400.181 441.12C399.456 439.404 398.979 437.916 398.789 436.619C398.598 435.341 398.751 434.426 399.304 433.872L395.127 427.903C394.764 427.388 394.478 426.892 394.249 426.415C394.04 425.957 394.002 425.671 394.135 425.576L394.726 425.156L400.41 433.3C401.287 433.224 402.355 433.567 403.614 434.349C404.873 435.15 406.265 436.218 407.772 437.573L409.336 440.548C409.813 441.444 409.965 441.959 409.813 442.074C409.737 442.131 409.508 442.036 409.145 441.788C408.783 441.521 408.344 441.235 407.829 440.891C407.333 440.548 406.799 440.243 406.265 439.976C405.712 439.709 405.216 439.556 404.778 439.556L418.701 459.602ZM403.69 440.205C403.423 440.643 403.347 441.235 403.443 441.997C403.557 442.741 403.805 443.6 404.205 444.553C404.606 445.507 405.14 446.518 405.769 447.605C406.418 448.692 407.143 449.798 407.944 450.924C408.878 452.221 409.756 453.327 410.557 454.242C411.358 455.139 412.102 455.882 412.807 456.493C413.513 457.103 414.181 457.599 414.81 457.961C415.439 458.343 416.05 458.629 416.641 458.877L403.69 440.205ZM438.003 487.315C438.289 486.876 438.346 486.227 438.193 485.407C438.041 484.587 437.736 483.614 437.259 482.508C436.782 481.402 436.133 480.181 435.332 478.827C434.531 477.492 433.578 476.042 432.471 474.517C431.499 473.162 430.583 472.018 429.782 471.122C428.962 470.225 428.199 469.481 427.493 468.89C426.788 468.299 426.12 467.841 425.51 467.536C424.88 467.212 424.27 466.945 423.679 466.716L438.003 487.315Z" fill="#FCB048"/>
<path d="M430.85 460.059C410.595 431.584 387.001 403.718 378.781 402.421C378.743 402.726 378.686 403.032 378.609 403.337C384.827 404.939 405.617 427.006 429.706 460.88C454.405 495.611 468.538 523.019 467.241 528.493C467.527 528.512 467.832 528.531 468.118 528.588C470.35 521.073 451.468 489.031 430.85 460.059Z" fill="url(#paint43_linear_1032_23779)"/>
<path d="M594.285 285.047C595.277 284.246 596.593 282.949 597.337 281.023C598.138 278.944 597.585 278.028 598.596 276.731C599.874 275.091 602.506 274.385 604.317 275.186C604.699 275.358 605.157 275.587 605.443 276.083C606.244 277.437 604.47 279.783 603.04 281.023C601.972 281.957 601.533 281.9 600.388 282.682C599.282 283.464 597.89 284.799 596.765 287.279L594.285 285.047Z" fill="url(#paint44_linear_1032_23779)"/>
<path d="M653.716 273.699C652.496 273.355 650.779 272.669 649.33 271.181C647.785 269.579 647.937 268.511 646.507 267.71C644.676 266.699 641.987 267.08 640.651 268.511C640.365 268.816 640.041 269.217 639.965 269.789C639.755 271.353 642.311 272.802 644.104 273.413C645.458 273.851 645.839 273.622 647.193 273.928C648.509 274.214 650.321 274.9 652.305 276.75L653.716 273.699Z" fill="url(#paint45_linear_1032_23779)"/>
<path d="M648.033 275.625C647.251 279.382 651.313 282.72 654.231 286.001C660.106 292.581 666.266 304.33 663.996 314.419C662.757 319.931 658.809 325.882 653.22 328.705C647.212 331.737 643.608 328.972 637.352 332.596C636.894 332.863 628.979 337.555 628.75 343.868C628.464 351.669 639.946 359.984 649.768 360.614C667.735 361.777 689.382 337.879 688.372 314.171C687.265 288.366 659.533 267.882 651.561 271.353C650.34 271.906 648.49 273.508 648.033 275.625Z" fill="url(#paint46_linear_1032_23779)"/>
<path d="M640.041 542.874L639.393 549.416L642.444 548.863L644.485 542.721L640.041 542.874Z" fill="url(#paint47_linear_1032_23779)"/>
<path d="M658.599 422.066C658.275 433.682 656.825 443.619 655.128 451.725C653.278 460.46 652.21 461.967 651.637 467.994C650.379 481.116 654.613 483.004 655.395 497.843C656.253 514.226 651.904 527.253 650.188 532.231C648.681 536.58 647.117 540.089 645.935 542.511C644.428 543.827 642.139 543.312 639.717 542.817C638.82 527.959 637.714 513.959 636.818 499.102C633.938 476.748 631.058 454.376 628.178 432.022C638.305 428.704 648.452 425.385 658.599 422.066Z" fill="url(#paint48_linear_1032_23779)"/>
<path opacity="0.3" d="M639.698 542.836C638.801 527.978 637.695 513.978 636.799 499.121C633.919 476.767 631.039 454.395 628.159 432.041C638.305 428.723 648.452 425.404 658.599 422.085C658.58 422.848 658.542 423.592 658.504 424.355C644.275 436.714 641.491 446.499 641.624 453.174C641.796 461.28 646.221 465.285 645.362 477.034C644.752 485.426 642.215 486.914 642.215 494.486C642.215 504.251 646.411 509.725 648.452 515.371C650.417 520.826 651.122 528.531 647.308 539.517C646.812 540.642 646.335 541.672 645.915 542.53C644.428 543.827 642.12 543.312 639.698 542.836Z" fill="url(#paint49_linear_1032_23779)"/>
<path d="M641.186 551.647C642.635 549.854 643.951 549.988 644.199 548.786C644.39 547.833 643.779 546.688 642.902 546.269C641.662 545.677 640.194 546.669 639.85 546.898C637.6 548.443 638.267 550.751 636.131 551.8C635.693 552.01 635.025 552.238 634.3 552.944C633.995 553.23 633.251 553.974 633.442 554.451C633.652 555.023 635.025 554.966 636.322 554.928C637.867 554.871 638.649 554.851 639.393 554.356C640.404 553.688 640.079 553.02 641.186 551.647Z" fill="url(#paint50_linear_1032_23779)"/>
<path d="M638.134 495.707L643.817 497.938L645.477 495.325L641.033 492.331L638.134 495.707Z" fill="url(#paint51_linear_1032_23779)"/>
<path d="M646.812 499.33C646.469 497.061 647.479 496.183 646.736 495.173C646.163 494.391 644.905 494.047 643.989 494.41C642.711 494.925 642.444 496.679 642.387 497.08C641.986 499.788 644.142 500.856 643.474 503.145C643.341 503.603 643.035 504.27 643.074 505.262C643.093 505.682 643.112 506.731 643.608 506.921C644.18 507.15 645.057 506.12 645.896 505.129C646.907 503.946 647.422 503.355 647.556 502.497C647.785 501.276 647.079 501.066 646.812 499.33Z" fill="url(#paint52_linear_1032_23779)"/>
<path d="M613.491 411.729C602.887 433.357 599.282 451.4 597.909 463.187C597.032 470.759 597.127 475.451 599.301 480.162C607.121 497.004 634.376 498.129 638.515 498.243C639.869 495.459 641.242 492.655 642.597 489.87C640.098 485.217 635.711 478.751 628.216 474.04C622.456 470.416 620.205 471.198 618.756 468.757C612.977 458.991 644.142 437.821 639.488 423.726C637.886 418.862 631.687 413.903 613.491 411.729Z" fill="url(#paint53_linear_1032_23779)"/>
<path d="M636.475 333.969C625.012 335.933 616.277 337.993 612.386 344.001C608.266 350.353 614.808 355.121 616.601 369.025C619.328 390.329 607.083 398.283 610.593 419.74C611.165 423.249 612.042 426.358 612.977 429.009C614.636 433.682 617.84 437.63 622.037 440.262C625.184 442.245 629.017 444.229 633.518 445.812C645.153 449.875 650.875 447.51 666.514 448.406C692.091 449.875 695.925 457.294 707.483 452.716C719.155 448.101 727.624 435.646 725.144 430.325C723.657 427.14 718.984 429.123 712.27 425.213C703.611 420.159 705.08 413.274 698.061 407.38C687.971 398.893 678.282 407.457 669.661 400.094C660.945 392.637 659.896 374.48 663.596 363.665C666.019 356.608 666.057 348.941 667.869 341.693C668.021 341.083 668.136 340.13 667.754 339.042C666.324 334.884 658.714 334.083 652.954 333.53C644.161 332.691 637.409 333.797 636.475 333.969Z" fill="url(#paint54_linear_1032_23779)"/>
<path opacity="0.3" d="M706.147 444.649C702.6 442.284 704.526 435.589 699.281 432.041C694.418 428.742 690.622 433.052 683.432 430.859C674.22 428.036 674.715 419.167 665.885 416.345C659.533 414.304 657.626 418.366 648.471 418.538C639.335 418.71 627.358 414.952 619.786 405.263C616.562 401.143 614.769 396.757 613.778 392.694C611.336 400.59 608.685 408.22 610.573 419.72C611.336 424.374 612.633 428.36 613.911 431.488C615.094 434.407 617.115 436.924 619.69 438.717C623.219 441.177 627.815 443.809 633.48 445.793C645.114 449.856 650.836 447.49 666.476 448.387C692.053 449.855 695.886 457.275 707.444 452.697C714.902 449.741 721.043 443.6 723.866 438.145C713.796 445.545 708.722 446.365 706.147 444.649Z" fill="url(#paint55_linear_1032_23779)"/>
<path d="M629.856 314.133C629.856 314.133 626.69 320.065 626.5 324.223C626.309 328.381 631.001 328.075 631.001 328.075L630.829 330.707C630.676 332.958 629.227 334.884 627.11 335.666L625.26 336.353C625.26 336.353 637.352 338.947 643.97 334.274L642.063 334.083C639.374 333.816 637.237 331.699 636.951 328.991L636.837 327.866C636.818 327.866 638.916 314.896 629.856 314.133Z" fill="url(#paint56_linear_1032_23779)"/>
<path d="M600.064 286.23C601.857 289.625 598.882 293.954 596.975 297.921C593.141 305.875 590.471 318.863 595.411 327.923C598.119 332.882 603.555 337.516 609.715 338.68C616.334 339.939 619.023 336.296 626.042 338.031C626.557 338.165 635.444 340.492 637.409 346.5C639.831 353.919 631.096 365.077 621.826 368.395C604.871 374.461 577.482 357.467 571.913 334.408C565.848 309.289 586.866 281.957 595.487 283.102C596.841 283.292 599.054 284.322 600.064 286.23Z" fill="url(#paint57_linear_1032_23779)"/>
<path d="M631.744 320.027C632.374 319.969 632.889 319.187 633.308 319.416C633.766 319.664 633.709 320.828 633.308 321.629C632.984 322.296 632.469 322.678 632.183 322.849C632.66 323.517 633.289 324.547 633.537 325.92C634.109 328.934 632.507 331.337 631.84 332.767C628.845 339.138 633.499 349.227 638.61 354.32C642.768 358.458 644.714 356.799 647.193 360.175C652.019 366.755 645.362 373.984 647.861 382.853C651.656 396.318 672.922 400.323 673.8 400.476C674.143 400.533 674.372 400.571 674.734 400.629C684.271 402.135 698.728 404.443 708.913 396.604C716.523 390.749 720.032 380.545 719.441 371.562C719.289 369.196 718.583 360.232 711.259 352.908C710.095 351.745 703.229 344.879 693.96 344.802C689.039 344.764 688.047 346.481 684.29 345.413C679.14 343.944 675.974 339.271 674.01 336.372C670.386 331.032 671.854 329.887 669.26 327.274C664.168 322.125 658.179 326.168 652.724 321.629C647.365 317.147 650.588 311.082 645.419 307.21C640.079 303.224 629.856 304.616 627.663 309.365C625.832 313.466 629.818 320.179 631.744 320.027Z" fill="url(#paint58_linear_1032_23779)"/>
<defs>
<linearGradient id="paint0_linear_1032_23779" x1="743.402" y1="279.907" x2="253.383" y2="595.331" gradientUnits="userSpaceOnUse">
<stop offset="0.00359712" stop-color="#E38DDD"/>
<stop offset="1" stop-color="#9571F6"/>
</linearGradient>
<linearGradient id="paint1_linear_1032_23779" x1="662.976" y1="90.6084" x2="597.876" y2="443.331" gradientUnits="userSpaceOnUse">
<stop stop-color="#FF9085"/>
<stop offset="1" stop-color="#FB6FBB"/>
</linearGradient>
<linearGradient id="paint2_linear_1032_23779" x1="316.837" y1="577.93" x2="638.029" y2="-36.0749" gradientUnits="userSpaceOnUse">
<stop stop-color="#444B8C"/>
<stop offset="0.9964" stop-color="#26264F"/>
</linearGradient>
<linearGradient id="paint3_linear_1032_23779" x1="120.195" y1="979.43" x2="441.388" y2="365.425" gradientUnits="userSpaceOnUse">
<stop stop-color="#AA80F9"/>
<stop offset="0.9964" stop-color="#6165D7"/>
</linearGradient>
<linearGradient id="paint4_linear_1032_23779" x1="593.082" y1="166.47" x2="34.0261" y2="784.914" gradientUnits="userSpaceOnUse">
<stop stop-color="#AA80F9"/>
<stop offset="0.9964" stop-color="#6165D7"/>
</linearGradient>
<linearGradient id="paint5_linear_1032_23779" x1="267.236" y1="296.634" x2="605.083" y2="296.634" gradientUnits="userSpaceOnUse">
<stop stop-color="#AA80F9"/>
<stop offset="0.9964" stop-color="#6165D7"/>
</linearGradient>
<linearGradient id="paint6_linear_1032_23779" x1="327.001" y1="316.246" x2="548.913" y2="11.6916" gradientUnits="userSpaceOnUse">
<stop stop-color="#FCB148"/>
<stop offset="0.0520724" stop-color="#FDBA46"/>
<stop offset="0.1424" stop-color="#FFC244"/>
<stop offset="0.3183" stop-color="#FFC444"/>
<stop offset="0.4849" stop-color="#FDB946"/>
<stop offset="0.7754" stop-color="#F99C4D"/>
<stop offset="0.8658" stop-color="#F8924F"/>
<stop offset="1" stop-color="#F8924F"/>
</linearGradient>
<linearGradient id="paint7_linear_1032_23779" x1="507.47" y1="170.489" x2="589.718" y2="57.722" gradientUnits="userSpaceOnUse">
<stop stop-color="#FCB148"/>
<stop offset="0.0520724" stop-color="#FDBA46"/>
<stop offset="0.1424" stop-color="#FFC244"/>
<stop offset="0.3183" stop-color="#FFC444"/>
<stop offset="0.4849" stop-color="#FDB946"/>
<stop offset="0.7754" stop-color="#F99C4D"/>
<stop offset="0.8658" stop-color="#F8924F"/>
<stop offset="1" stop-color="#F8924F"/>
</linearGradient>
<linearGradient id="paint8_linear_1032_23779" x1="198.372" y1="532.099" x2="378.683" y2="532.099" gradientUnits="userSpaceOnUse">
<stop stop-color="#FCB148"/>
<stop offset="0.0520724" stop-color="#FDBA46"/>
<stop offset="0.1424" stop-color="#FFC244"/>
<stop offset="0.3183" stop-color="#FFC444"/>
<stop offset="0.4849" stop-color="#FDB946"/>
<stop offset="0.7754" stop-color="#F99C4D"/>
<stop offset="0.8658" stop-color="#F8924F"/>
<stop offset="1" stop-color="#F8924F"/>
</linearGradient>
<linearGradient id="paint9_linear_1032_23779" x1="289.356" y1="511.787" x2="298.862" y2="591.365" gradientUnits="userSpaceOnUse">
<stop stop-color="#FFDB44"/>
<stop offset="1" stop-color="#FEEF06"/>
</linearGradient>
<linearGradient id="paint10_linear_1032_23779" x1="288.943" y1="508.238" x2="291.862" y2="532.678" gradientUnits="userSpaceOnUse">
<stop stop-color="#FFDB44"/>
<stop offset="1" stop-color="#FEEF06"/>
</linearGradient>
<linearGradient id="paint11_linear_1032_23779" x1="291.687" y1="530.116" x2="288.778" y2="505.763" gradientUnits="userSpaceOnUse">
<stop offset="0.00359712" stop-color="#F36F56"/>
<stop offset="0.3059" stop-color="#F99C4C"/>
<stop offset="0.545" stop-color="#FDB946"/>
<stop offset="0.6817" stop-color="#FFC444"/>
<stop offset="0.8038" stop-color="#FFC244"/>
<stop offset="0.8667" stop-color="#FEBA46"/>
<stop offset="0.916" stop-color="#FCAD49"/>
<stop offset="0.958" stop-color="#F99A4D"/>
<stop offset="0.9955" stop-color="#F58152"/>
<stop offset="1" stop-color="#F57E53"/>
</linearGradient>
<linearGradient id="paint12_linear_1032_23779" x1="176.586" y1="513.841" x2="356.898" y2="513.841" gradientUnits="userSpaceOnUse">
<stop stop-color="#FCB148"/>
<stop offset="0.0520724" stop-color="#FDBA46"/>
<stop offset="0.1424" stop-color="#FFC244"/>
<stop offset="0.3183" stop-color="#FFC444"/>
<stop offset="0.4849" stop-color="#FDB946"/>
<stop offset="0.7754" stop-color="#F99C4D"/>
<stop offset="0.8658" stop-color="#F8924F"/>
<stop offset="1" stop-color="#F8924F"/>
</linearGradient>
<linearGradient id="paint13_linear_1032_23779" x1="267.571" y1="493.53" x2="277.076" y2="573.107" gradientUnits="userSpaceOnUse">
<stop stop-color="#FFDB44"/>
<stop offset="1" stop-color="#FEEF06"/>
</linearGradient>
<linearGradient id="paint14_linear_1032_23779" x1="267.157" y1="489.981" x2="270.077" y2="514.42" gradientUnits="userSpaceOnUse">
<stop stop-color="#FFDB44"/>
<stop offset="1" stop-color="#FEEF06"/>
</linearGradient>
<linearGradient id="paint15_linear_1032_23779" x1="269.902" y1="511.858" x2="266.993" y2="487.505" gradientUnits="userSpaceOnUse">
<stop offset="0.00359712" stop-color="#F36F56"/>
<stop offset="0.3059" stop-color="#F99C4C"/>
<stop offset="0.545" stop-color="#FDB946"/>
<stop offset="0.6817" stop-color="#FFC444"/>
<stop offset="0.8038" stop-color="#FFC244"/>
<stop offset="0.8667" stop-color="#FEBA46"/>
<stop offset="0.916" stop-color="#FCAD49"/>
<stop offset="0.958" stop-color="#F99A4D"/>
<stop offset="0.9955" stop-color="#F58152"/>
<stop offset="1" stop-color="#F57E53"/>
</linearGradient>
<linearGradient id="paint16_linear_1032_23779" x1="195.384" y1="495.637" x2="375.696" y2="495.637" gradientUnits="userSpaceOnUse">
<stop stop-color="#FCB148"/>
<stop offset="0.0520724" stop-color="#FDBA46"/>
<stop offset="0.1424" stop-color="#FFC244"/>
<stop offset="0.3183" stop-color="#FFC444"/>
<stop offset="0.4849" stop-color="#FDB946"/>
<stop offset="0.7754" stop-color="#F99C4D"/>
<stop offset="0.8658" stop-color="#F8924F"/>
<stop offset="1" stop-color="#F8924F"/>
</linearGradient>
<linearGradient id="paint17_linear_1032_23779" x1="286.368" y1="475.325" x2="295.874" y2="554.903" gradientUnits="userSpaceOnUse">
<stop stop-color="#FFDB44"/>
<stop offset="1" stop-color="#FEEF06"/>
</linearGradient>
<linearGradient id="paint18_linear_1032_23779" x1="285.955" y1="471.777" x2="288.874" y2="496.216" gradientUnits="userSpaceOnUse">
<stop stop-color="#FFDB44"/>
<stop offset="1" stop-color="#FEEF06"/>
</linearGradient>
<linearGradient id="paint19_linear_1032_23779" x1="288.699" y1="493.654" x2="285.79" y2="469.301" gradientUnits="userSpaceOnUse">
<stop offset="0.00359712" stop-color="#F36F56"/>
<stop offset="0.3059" stop-color="#F99C4C"/>
<stop offset="0.545" stop-color="#FDB946"/>
<stop offset="0.6817" stop-color="#FFC444"/>
<stop offset="0.8038" stop-color="#FFC244"/>
<stop offset="0.8667" stop-color="#FEBA46"/>
<stop offset="0.916" stop-color="#FCAD49"/>
<stop offset="0.958" stop-color="#F99A4D"/>
<stop offset="0.9955" stop-color="#F58152"/>
<stop offset="1" stop-color="#F57E53"/>
</linearGradient>
<linearGradient id="paint20_linear_1032_23779" x1="206.791" y1="477.379" x2="387.103" y2="477.379" gradientUnits="userSpaceOnUse">
<stop stop-color="#FCB148"/>
<stop offset="0.0520724" stop-color="#FDBA46"/>
<stop offset="0.1424" stop-color="#FFC244"/>
<stop offset="0.3183" stop-color="#FFC444"/>
<stop offset="0.4849" stop-color="#FDB946"/>
<stop offset="0.7754" stop-color="#F99C4D"/>
<stop offset="0.8658" stop-color="#F8924F"/>
<stop offset="1" stop-color="#F8924F"/>
</linearGradient>
<linearGradient id="paint21_linear_1032_23779" x1="297.776" y1="457.068" x2="307.282" y2="536.645" gradientUnits="userSpaceOnUse">
<stop stop-color="#FFDB44"/>
<stop offset="1" stop-color="#FEEF06"/>
</linearGradient>
<linearGradient id="paint22_linear_1032_23779" x1="297.362" y1="453.519" x2="300.282" y2="477.958" gradientUnits="userSpaceOnUse">
<stop stop-color="#FFDB44"/>
<stop offset="1" stop-color="#FEEF06"/>
</linearGradient>
<linearGradient id="paint23_linear_1032_23779" x1="300.107" y1="475.396" x2="297.198" y2="451.043" gradientUnits="userSpaceOnUse">
<stop offset="0.00359712" stop-color="#F36F56"/>
<stop offset="0.3059" stop-color="#F99C4C"/>
<stop offset="0.545" stop-color="#FDB946"/>
<stop offset="0.6817" stop-color="#FFC444"/>
<stop offset="0.8038" stop-color="#FFC244"/>
<stop offset="0.8667" stop-color="#FEBA46"/>
<stop offset="0.916" stop-color="#FCAD49"/>
<stop offset="0.958" stop-color="#F99A4D"/>
<stop offset="0.9955" stop-color="#F58152"/>
<stop offset="1" stop-color="#F57E53"/>
</linearGradient>
<linearGradient id="paint24_linear_1032_23779" x1="198.372" y1="457.681" x2="378.683" y2="457.681" gradientUnits="userSpaceOnUse">
<stop stop-color="#FCB148"/>
<stop offset="0.0520724" stop-color="#FDBA46"/>
<stop offset="0.1424" stop-color="#FFC244"/>
<stop offset="0.3183" stop-color="#FFC444"/>
<stop offset="0.4849" stop-color="#FDB946"/>
<stop offset="0.7754" stop-color="#F99C4D"/>
<stop offset="0.8658" stop-color="#F8924F"/>
<stop offset="1" stop-color="#F8924F"/>
</linearGradient>
<linearGradient id="paint25_linear_1032_23779" x1="289.356" y1="437.37" x2="298.862" y2="516.947" gradientUnits="userSpaceOnUse">
<stop stop-color="#FFDB44"/>
<stop offset="1" stop-color="#FEEF06"/>
</linearGradient>
<linearGradient id="paint26_linear_1032_23779" x1="288.943" y1="433.821" x2="291.862" y2="458.26" gradientUnits="userSpaceOnUse">
<stop stop-color="#FFDB44"/>
<stop offset="1" stop-color="#FEEF06"/>
</linearGradient>
<linearGradient id="paint27_linear_1032_23779" x1="291.687" y1="455.698" x2="288.778" y2="431.345" gradientUnits="userSpaceOnUse">
<stop offset="0.00359712" stop-color="#F36F56"/>
<stop offset="0.3059" stop-color="#F99C4C"/>
<stop offset="0.545" stop-color="#FDB946"/>
<stop offset="0.6817" stop-color="#FFC444"/>
<stop offset="0.8038" stop-color="#FFC244"/>
<stop offset="0.8667" stop-color="#FEBA46"/>
<stop offset="0.916" stop-color="#FCAD49"/>
<stop offset="0.958" stop-color="#F99A4D"/>
<stop offset="0.9955" stop-color="#F58152"/>
<stop offset="1" stop-color="#F57E53"/>
</linearGradient>
<linearGradient id="paint28_linear_1032_23779" x1="176.586" y1="439.423" x2="356.898" y2="439.423" gradientUnits="userSpaceOnUse">
<stop stop-color="#FCB148"/>
<stop offset="0.0520724" stop-color="#FDBA46"/>
<stop offset="0.1424" stop-color="#FFC244"/>
<stop offset="0.3183" stop-color="#FFC444"/>
<stop offset="0.4849" stop-color="#FDB946"/>
<stop offset="0.7754" stop-color="#F99C4D"/>
<stop offset="0.8658" stop-color="#F8924F"/>
<stop offset="1" stop-color="#F8924F"/>
</linearGradient>
<linearGradient id="paint29_linear_1032_23779" x1="267.571" y1="419.112" x2="277.076" y2="498.69" gradientUnits="userSpaceOnUse">
<stop stop-color="#FFDB44"/>
<stop offset="1" stop-color="#FEEF06"/>
</linearGradient>
<linearGradient id="paint30_linear_1032_23779" x1="267.157" y1="415.563" x2="270.077" y2="440.003" gradientUnits="userSpaceOnUse">
<stop stop-color="#FFDB44"/>
<stop offset="1" stop-color="#FEEF06"/>
</linearGradient>
<linearGradient id="paint31_linear_1032_23779" x1="269.902" y1="437.44" x2="266.993" y2="413.088" gradientUnits="userSpaceOnUse">
<stop offset="0.00359712" stop-color="#F36F56"/>
<stop offset="0.3059" stop-color="#F99C4C"/>
<stop offset="0.545" stop-color="#FDB946"/>
<stop offset="0.6817" stop-color="#FFC444"/>
<stop offset="0.8038" stop-color="#FFC244"/>
<stop offset="0.8667" stop-color="#FEBA46"/>
<stop offset="0.916" stop-color="#FCAD49"/>
<stop offset="0.958" stop-color="#F99A4D"/>
<stop offset="0.9955" stop-color="#F58152"/>
<stop offset="1" stop-color="#F57E53"/>
</linearGradient>
<linearGradient id="paint32_linear_1032_23779" x1="195.384" y1="421.219" x2="375.696" y2="421.219" gradientUnits="userSpaceOnUse">
<stop stop-color="#FCB148"/>
<stop offset="0.0520724" stop-color="#FDBA46"/>
<stop offset="0.1424" stop-color="#FFC244"/>
<stop offset="0.3183" stop-color="#FFC444"/>
<stop offset="0.4849" stop-color="#FDB946"/>
<stop offset="0.7754" stop-color="#F99C4D"/>
<stop offset="0.8658" stop-color="#F8924F"/>
<stop offset="1" stop-color="#F8924F"/>
</linearGradient>
<linearGradient id="paint33_linear_1032_23779" x1="286.368" y1="400.908" x2="295.874" y2="480.486" gradientUnits="userSpaceOnUse">
<stop stop-color="#FFDB44"/>
<stop offset="1" stop-color="#FEEF06"/>
</linearGradient>
<linearGradient id="paint34_linear_1032_23779" x1="285.955" y1="397.359" x2="288.875" y2="421.799" gradientUnits="userSpaceOnUse">
<stop stop-color="#FFDB44"/>
<stop offset="1" stop-color="#FEEF06"/>
</linearGradient>
<linearGradient id="paint35_linear_1032_23779" x1="288.699" y1="419.236" x2="285.79" y2="394.883" gradientUnits="userSpaceOnUse">
<stop offset="0.00359712" stop-color="#F36F56"/>
<stop offset="0.3059" stop-color="#F99C4C"/>
<stop offset="0.545" stop-color="#FDB946"/>
<stop offset="0.6817" stop-color="#FFC444"/>
<stop offset="0.8038" stop-color="#FFC244"/>
<stop offset="0.8667" stop-color="#FEBA46"/>
<stop offset="0.916" stop-color="#FCAD49"/>
<stop offset="0.958" stop-color="#F99A4D"/>
<stop offset="0.9955" stop-color="#F58152"/>
<stop offset="1" stop-color="#F57E53"/>
</linearGradient>
<linearGradient id="paint36_linear_1032_23779" x1="185.607" y1="402.961" x2="365.918" y2="402.961" gradientUnits="userSpaceOnUse">
<stop stop-color="#FCB148"/>
<stop offset="0.0520724" stop-color="#FDBA46"/>
<stop offset="0.1424" stop-color="#FFC244"/>
<stop offset="0.3183" stop-color="#FFC444"/>
<stop offset="0.4849" stop-color="#FDB946"/>
<stop offset="0.7754" stop-color="#F99C4D"/>
<stop offset="0.8658" stop-color="#F8924F"/>
<stop offset="1" stop-color="#F8924F"/>
</linearGradient>
<linearGradient id="paint37_linear_1032_23779" x1="276.591" y1="382.65" x2="286.097" y2="462.228" gradientUnits="userSpaceOnUse">
<stop stop-color="#FFDB44"/>
<stop offset="1" stop-color="#FEEF06"/>
</linearGradient>
<linearGradient id="paint38_linear_1032_23779" x1="276.178" y1="379.101" x2="279.097" y2="403.541" gradientUnits="userSpaceOnUse">
<stop stop-color="#FFDB44"/>
<stop offset="1" stop-color="#FEEF06"/>
</linearGradient>
<linearGradient id="paint39_linear_1032_23779" x1="278.922" y1="400.979" x2="276.013" y2="376.626" gradientUnits="userSpaceOnUse">
<stop offset="0.00359712" stop-color="#F36F56"/>
<stop offset="0.3059" stop-color="#F99C4C"/>
<stop offset="0.545" stop-color="#FDB946"/>
<stop offset="0.6817" stop-color="#FFC444"/>
<stop offset="0.8038" stop-color="#FFC244"/>
<stop offset="0.8667" stop-color="#FEBA46"/>
<stop offset="0.916" stop-color="#FCAD49"/>
<stop offset="0.958" stop-color="#F99A4D"/>
<stop offset="0.9955" stop-color="#F58152"/>
<stop offset="1" stop-color="#F57E53"/>
</linearGradient>
<linearGradient id="paint40_linear_1032_23779" x1="359.041" y1="398.503" x2="463.55" y2="545.439" gradientUnits="userSpaceOnUse">
<stop stop-color="#FCB148"/>
<stop offset="0.0520724" stop-color="#FDBA46"/>
<stop offset="0.1424" stop-color="#FFC244"/>
<stop offset="0.3183" stop-color="#FFC444"/>
<stop offset="0.4849" stop-color="#FDB946"/>
<stop offset="0.7754" stop-color="#F99C4D"/>
<stop offset="0.8658" stop-color="#F8924F"/>
<stop offset="1" stop-color="#F8924F"/>
</linearGradient>
<linearGradient id="paint41_linear_1032_23779" x1="428.325" y1="460.875" x2="368.994" y2="514.738" gradientUnits="userSpaceOnUse">
<stop stop-color="#FFDB44"/>
<stop offset="1" stop-color="#FEEF06"/>
</linearGradient>
<linearGradient id="paint42_linear_1032_23779" x1="430.977" y1="458.482" x2="412.756" y2="475.024" gradientUnits="userSpaceOnUse">
<stop stop-color="#FFDB44"/>
<stop offset="1" stop-color="#FEEF06"/>
</linearGradient>
<linearGradient id="paint43_linear_1032_23779" x1="414.743" y1="473.395" x2="432.899" y2="456.913" gradientUnits="userSpaceOnUse">
<stop offset="0.00359712" stop-color="#F36F56"/>
<stop offset="0.3059" stop-color="#F99C4C"/>
<stop offset="0.545" stop-color="#FDB946"/>
<stop offset="0.6817" stop-color="#FFC444"/>
<stop offset="0.8038" stop-color="#FFC244"/>
<stop offset="0.8667" stop-color="#FEBA46"/>
<stop offset="0.916" stop-color="#FCAD49"/>
<stop offset="0.958" stop-color="#F99A4D"/>
<stop offset="0.9955" stop-color="#F58152"/>
<stop offset="1" stop-color="#F57E53"/>
</linearGradient>
<linearGradient id="paint44_linear_1032_23779" x1="599.51" y1="278.18" x2="602.476" y2="295.479" gradientUnits="userSpaceOnUse">
<stop stop-color="#FFC444"/>
<stop offset="0.9964" stop-color="#F36F56"/>
</linearGradient>
<linearGradient id="paint45_linear_1032_23779" x1="646.236" y1="269.408" x2="650.254" y2="286.494" gradientUnits="userSpaceOnUse">
<stop stop-color="#FFC444"/>
<stop offset="0.9964" stop-color="#F36F56"/>
</linearGradient>
<linearGradient id="paint46_linear_1032_23779" x1="654.641" y1="293.154" x2="669.716" y2="430.186" gradientUnits="userSpaceOnUse">
<stop stop-color="#FF9085"/>
<stop offset="1" stop-color="#FB6FBB"/>
</linearGradient>
<linearGradient id="paint47_linear_1032_23779" x1="642.349" y1="557.471" x2="640.1" y2="493.623" gradientUnits="userSpaceOnUse">
<stop stop-color="#FFC444"/>
<stop offset="0.9964" stop-color="#F36F56"/>
</linearGradient>
<linearGradient id="paint48_linear_1032_23779" x1="643.988" y1="434.591" x2="653.303" y2="551.328" gradientUnits="userSpaceOnUse">
<stop stop-color="#311944"/>
<stop offset="1" stop-color="#893976"/>
</linearGradient>
<linearGradient id="paint49_linear_1032_23779" x1="643.988" y1="434.591" x2="653.303" y2="551.328" gradientUnits="userSpaceOnUse">
<stop stop-color="#311944"/>
<stop offset="1" stop-color="#893976"/>
</linearGradient>
<linearGradient id="paint50_linear_1032_23779" x1="637.082" y1="557.986" x2="646.524" y2="522.389" gradientUnits="userSpaceOnUse">
<stop stop-color="#FF9085"/>
<stop offset="1" stop-color="#FB6FBB"/>
</linearGradient>
<linearGradient id="paint51_linear_1032_23779" x1="649.634" y1="502.255" x2="606.71" y2="465.333" gradientUnits="userSpaceOnUse">
<stop stop-color="#FFC444"/>
<stop offset="0.9964" stop-color="#F36F56"/>
</linearGradient>
<linearGradient id="paint52_linear_1032_23779" x1="648.69" y1="506.636" x2="628.942" y2="475.55" gradientUnits="userSpaceOnUse">
<stop stop-color="#FF9085"/>
<stop offset="1" stop-color="#FB6FBB"/>
</linearGradient>
<linearGradient id="paint53_linear_1032_23779" x1="687.495" y1="457.786" x2="578.449" y2="452.83" gradientUnits="userSpaceOnUse">
<stop stop-color="#311944"/>
<stop offset="1" stop-color="#893976"/>
</linearGradient>
<linearGradient id="paint54_linear_1032_23779" x1="644.168" y1="286.402" x2="671.285" y2="444.514" gradientUnits="userSpaceOnUse">
<stop stop-color="#FF9085"/>
<stop offset="1" stop-color="#FB6FBB"/>
</linearGradient>
<linearGradient id="paint55_linear_1032_23779" x1="601.41" y1="348.844" x2="675.688" y2="444.029" gradientUnits="userSpaceOnUse">
<stop stop-color="#FF9085"/>
<stop offset="1" stop-color="#FB6FBB"/>
</linearGradient>
<linearGradient id="paint56_linear_1032_23779" x1="627.36" y1="322.479" x2="640.24" y2="341.763" gradientUnits="userSpaceOnUse">
<stop stop-color="#FFC444"/>
<stop offset="0.9964" stop-color="#F36F56"/>
</linearGradient>
<linearGradient id="paint57_linear_1032_23779" x1="598.554" y1="304.901" x2="621.857" y2="440.775" gradientUnits="userSpaceOnUse">
<stop stop-color="#FF9085"/>
<stop offset="1" stop-color="#FB6FBB"/>
</linearGradient>
<linearGradient id="paint58_linear_1032_23779" x1="697.949" y1="402.664" x2="644.975" y2="299.129" gradientUnits="userSpaceOnUse">
<stop stop-color="#444B8C"/>
<stop offset="0.9964" stop-color="#26264F"/>
</linearGradient>
</defs>
</svg>
